<mxfile host="app.diagrams.net" modified="2023-12-05T02:43:16.508Z" agent="Mozilla/5.0 (Windows NT 10.0; Win64; x64) AppleWebKit/537.36 (KHTML, like Gecko) Chrome/119.0.0.0 Safari/537.36" etag="AiRhTsX-vcVpRYtSdHEw" version="22.1.5" type="github">
  <diagram name="第 1 页" id="dMRlZ9Ecj2mYpYMEEnQH">
    <mxGraphModel dx="875" dy="484" grid="1" gridSize="10" guides="1" tooltips="1" connect="1" arrows="1" fold="1" page="1" pageScale="1" pageWidth="827" pageHeight="1169" math="0" shadow="0">
      <root>
        <mxCell id="0" />
        <mxCell id="1" parent="0" />
        <mxCell id="2E4qlqJoj9cdnOT1XWmK-33" style="edgeStyle=orthogonalEdgeStyle;rounded=0;orthogonalLoop=1;jettySize=auto;html=1;entryX=0.517;entryY=-0.031;entryDx=0;entryDy=0;entryPerimeter=0;" edge="1" parent="1">
          <mxGeometry relative="1" as="geometry">
            <mxPoint x="322.90999999999997" y="412.9" as="targetPoint" />
            <mxPoint x="324" y="380" as="sourcePoint" />
          </mxGeometry>
        </mxCell>
        <mxCell id="T4CbHds_D_vAfnWRimyr-1" value="" style="rounded=1;whiteSpace=wrap;html=1;glass=0;shadow=0;align=left;fillColor=#a0522d;fontColor=#ffffff;strokeColor=#6D1F00;" parent="1" vertex="1">
          <mxGeometry x="185" y="140" width="280" height="240" as="geometry" />
        </mxCell>
        <mxCell id="2E4qlqJoj9cdnOT1XWmK-24" value="" style="edgeStyle=orthogonalEdgeStyle;rounded=0;orthogonalLoop=1;jettySize=auto;html=1;" edge="1" parent="1" source="2E4qlqJoj9cdnOT1XWmK-2" target="2E4qlqJoj9cdnOT1XWmK-5">
          <mxGeometry relative="1" as="geometry" />
        </mxCell>
        <mxCell id="2E4qlqJoj9cdnOT1XWmK-2" value="Client" style="rounded=1;whiteSpace=wrap;html=1;fillColor=#0050ef;strokeColor=#001DBC;fontColor=#ffffff;" vertex="1" parent="1">
          <mxGeometry x="280" y="80" width="90" height="30" as="geometry" />
        </mxCell>
        <mxCell id="2E4qlqJoj9cdnOT1XWmK-28" style="edgeStyle=orthogonalEdgeStyle;rounded=0;orthogonalLoop=1;jettySize=auto;html=1;exitX=0;exitY=0.5;exitDx=0;exitDy=0;curved=1;" edge="1" parent="1" source="2E4qlqJoj9cdnOT1XWmK-5" target="2E4qlqJoj9cdnOT1XWmK-7">
          <mxGeometry relative="1" as="geometry" />
        </mxCell>
        <mxCell id="2E4qlqJoj9cdnOT1XWmK-29" style="edgeStyle=orthogonalEdgeStyle;rounded=0;orthogonalLoop=1;jettySize=auto;html=1;entryX=0.5;entryY=0;entryDx=0;entryDy=0;curved=1;" edge="1" parent="1" source="2E4qlqJoj9cdnOT1XWmK-5" target="2E4qlqJoj9cdnOT1XWmK-8">
          <mxGeometry relative="1" as="geometry" />
        </mxCell>
        <mxCell id="2E4qlqJoj9cdnOT1XWmK-5" value="连接器" style="rounded=1;whiteSpace=wrap;html=1;fillColor=#008a00;fontColor=#ffffff;strokeColor=#005700;" vertex="1" parent="1">
          <mxGeometry x="285" y="180" width="80" height="30" as="geometry" />
        </mxCell>
        <mxCell id="2E4qlqJoj9cdnOT1XWmK-7" value="查询缓存" style="rounded=1;whiteSpace=wrap;html=1;fillColor=#008a00;fontColor=#ffffff;strokeColor=#005700;" vertex="1" parent="1">
          <mxGeometry x="205" y="230" width="80" height="30" as="geometry" />
        </mxCell>
        <mxCell id="2E4qlqJoj9cdnOT1XWmK-30" value="" style="edgeStyle=orthogonalEdgeStyle;rounded=0;orthogonalLoop=1;jettySize=auto;html=1;" edge="1" parent="1" source="2E4qlqJoj9cdnOT1XWmK-8" target="2E4qlqJoj9cdnOT1XWmK-10">
          <mxGeometry relative="1" as="geometry" />
        </mxCell>
        <mxCell id="2E4qlqJoj9cdnOT1XWmK-31" value="" style="edgeStyle=orthogonalEdgeStyle;rounded=0;orthogonalLoop=1;jettySize=auto;html=1;" edge="1" parent="1" source="2E4qlqJoj9cdnOT1XWmK-8" target="2E4qlqJoj9cdnOT1XWmK-7">
          <mxGeometry relative="1" as="geometry" />
        </mxCell>
        <mxCell id="2E4qlqJoj9cdnOT1XWmK-8" value="分析器" style="rounded=1;whiteSpace=wrap;html=1;fillColor=#008a00;fontColor=#ffffff;strokeColor=#005700;" vertex="1" parent="1">
          <mxGeometry x="373" y="230" width="80" height="30" as="geometry" />
        </mxCell>
        <mxCell id="2E4qlqJoj9cdnOT1XWmK-9" value="优化器" style="rounded=1;whiteSpace=wrap;html=1;fillColor=#008a00;fontColor=#ffffff;strokeColor=#005700;" vertex="1" parent="1">
          <mxGeometry x="375" y="280" width="80" height="30" as="geometry" />
        </mxCell>
        <mxCell id="2E4qlqJoj9cdnOT1XWmK-10" value="执行器" style="rounded=1;whiteSpace=wrap;html=1;fillColor=#008a00;fontColor=#ffffff;strokeColor=#005700;" vertex="1" parent="1">
          <mxGeometry x="375" y="330" width="80" height="30" as="geometry" />
        </mxCell>
        <mxCell id="2E4qlqJoj9cdnOT1XWmK-11" value="Server" style="text;html=1;strokeColor=none;fillColor=none;align=center;verticalAlign=middle;whiteSpace=wrap;rounded=0;" vertex="1" parent="1">
          <mxGeometry x="205" y="340" width="60" height="30" as="geometry" />
        </mxCell>
        <mxCell id="2E4qlqJoj9cdnOT1XWmK-14" value="" style="rounded=1;whiteSpace=wrap;html=1;fillColor=#647687;fontColor=#ffffff;strokeColor=#314354;" vertex="1" parent="1">
          <mxGeometry x="205" y="416" width="230" height="100" as="geometry" />
        </mxCell>
        <mxCell id="2E4qlqJoj9cdnOT1XWmK-15" value="&lt;font style=&quot;font-size: 8px;&quot;&gt;存储引擎&lt;/font&gt;" style="rounded=1;whiteSpace=wrap;html=1;fontSize=8;fillColor=#f0a30a;fontColor=#000000;strokeColor=#BD7000;" vertex="1" parent="1">
          <mxGeometry x="224" y="436" width="50" height="60" as="geometry" />
        </mxCell>
        <mxCell id="2E4qlqJoj9cdnOT1XWmK-17" value="&lt;font style=&quot;font-size: 8px;&quot;&gt;存储引擎&lt;/font&gt;" style="rounded=1;whiteSpace=wrap;html=1;fontSize=8;fillColor=#f0a30a;fontColor=#000000;strokeColor=#BD7000;" vertex="1" parent="1">
          <mxGeometry x="299" y="436" width="50" height="60" as="geometry" />
        </mxCell>
        <mxCell id="2E4qlqJoj9cdnOT1XWmK-18" value="&lt;font style=&quot;font-size: 8px;&quot;&gt;存储引擎&lt;/font&gt;" style="rounded=1;whiteSpace=wrap;html=1;fontSize=8;fillColor=#f0a30a;fontColor=#000000;strokeColor=#BD7000;" vertex="1" parent="1">
          <mxGeometry x="369" y="436" width="50" height="60" as="geometry" />
        </mxCell>
        <mxCell id="2E4qlqJoj9cdnOT1XWmK-34" value="命中直接返回结果" style="text;html=1;align=center;verticalAlign=middle;resizable=0;points=[];autosize=1;strokeColor=#82b366;fillColor=#d5e8d4;" vertex="1" parent="1">
          <mxGeometry x="9" y="228" width="120" height="30" as="geometry" />
        </mxCell>
        <mxCell id="2E4qlqJoj9cdnOT1XWmK-35" value="管理连接，权限验证" style="text;html=1;align=center;verticalAlign=middle;resizable=0;points=[];autosize=1;strokeColor=#82b366;fillColor=#d5e8d4;" vertex="1" parent="1">
          <mxGeometry x="480" y="168" width="130" height="30" as="geometry" />
        </mxCell>
        <mxCell id="2E4qlqJoj9cdnOT1XWmK-36" value="词法分析，语法分析" style="text;html=1;align=center;verticalAlign=middle;resizable=0;points=[];autosize=1;strokeColor=#82b366;fillColor=#d5e8d4;" vertex="1" parent="1">
          <mxGeometry x="480" y="228" width="130" height="30" as="geometry" />
        </mxCell>
        <mxCell id="2E4qlqJoj9cdnOT1XWmK-37" value="执行计划生成，索引选择" style="text;html=1;align=center;verticalAlign=middle;resizable=0;points=[];autosize=1;strokeColor=#82b366;fillColor=#d5e8d4;" vertex="1" parent="1">
          <mxGeometry x="467" y="280" width="160" height="30" as="geometry" />
        </mxCell>
        <mxCell id="2E4qlqJoj9cdnOT1XWmK-38" value="操作索引，返回结果" style="text;html=1;align=center;verticalAlign=middle;resizable=0;points=[];autosize=1;strokeColor=#82b366;fillColor=#d5e8d4;" vertex="1" parent="1">
          <mxGeometry x="482" y="320" width="130" height="30" as="geometry" />
        </mxCell>
        <mxCell id="2E4qlqJoj9cdnOT1XWmK-39" value="存储数据，提供读写接口" style="text;html=1;align=center;verticalAlign=middle;resizable=0;points=[];autosize=1;strokeColor=#82b366;fillColor=#d5e8d4;" vertex="1" parent="1">
          <mxGeometry x="450" y="448" width="160" height="30" as="geometry" />
        </mxCell>
      </root>
    </mxGraphModel>
  </diagram>
</mxfile>
